<svg width="1974.841" height="1300.246" fill="none" xmlns="http://www.w3.org/2000/svg"><g clip-path="url(#a)" transform="translate(11.941)"><path fill="#dedede" d="M0 0h1920v1080H0z"/><g opacity=".25"><path d="m1804.11 635.228-17.59 30.254-35-.114L1734.11 635l17.6-30.254 35 .115z" fill="#9b32ee" fill-opacity=".65"/><path d="m1786.42 605.36 17.12 29.866-17.31 29.755-34.42-.112-17.12-29.867 17.31-29.755z" stroke="#9b32ee" stroke-opacity=".8"/></g><path opacity=".25" d="m1838.42 575.36 17.12 29.866-17.31 29.755-34.42-.112-17.12-29.867 17.31-29.755z" stroke="#9b32ee" stroke-opacity=".9"/><g opacity=".25"><path d="m1908.11 575.228-17.59 30.254-35-.114L1838.11 575l17.6-30.254 35 .115z" fill="#9b32ee" fill-opacity=".8"/><path d="m1890.42 545.36 17.12 29.866-17.31 29.755-34.42-.112-17.12-29.867 17.31-29.755z" stroke="#9b32ee" stroke-opacity=".9"/></g><path opacity=".25" d="m1890.42 605.36 17.12 29.866-17.31 29.755-34.42-.112-17.12-29.867 17.31-29.755z" stroke="#9b32ee" stroke-opacity=".9"/><path opacity=".25" d="m1942.42 635.36 17.12 29.866-17.31 29.755-34.42-.112-17.12-29.867 17.31-29.755zM1942.42 575.36l17.12 29.866-17.31 29.755-34.42-.112-17.12-29.867 17.31-29.755z" stroke="#9b32ee"/><path opacity=".25" d="m1838.42 635.36 17.12 29.866-17.31 29.755-34.42-.112-17.12-29.867 17.31-29.755z" stroke="#9b32ee" stroke-opacity=".9"/><path opacity=".25" d="m1785.42 665.36 17.12 29.866-17.31 29.755-34.42-.112-17.12-29.867 17.31-29.755z" stroke="#9b32ee" stroke-opacity=".55"/><g opacity=".25"><path d="m1908.11 695.228-17.59 30.254-35-.114L1838.11 695l17.6-30.254 35 .115z" fill="#9b32ee" fill-opacity=".7"/><path d="m1890.42 665.36 17.12 29.866-17.31 29.755-34.42-.112-17.12-29.867 17.31-29.755z" stroke="#9b32ee" stroke-opacity=".9"/></g><path opacity=".25" d="m1734.42 635.36 17.12 29.866-17.31 29.755-34.42-.112-17.12-29.867 17.31-29.755z" stroke="#9b32ee" stroke-opacity=".55"/><g opacity=".25"><path d="m1751.95 605.117-17.6 30.254-35-.114-17.4-30.368 17.6-30.254 35 .114z" fill="#9b32ee" fill-opacity=".4"/><path d="m1734.26 575.248 17.11 29.867-17.31 29.755-34.42-.112-17.12-29.867 17.31-29.755z" stroke="#9b32ee" stroke-opacity=".7"/></g><path opacity=".25" d="m1936.36 1161.36 17.12 29.87-17.31 29.75-34.42-.11-17.12-29.87 17.31-29.75z" stroke="#9b32ee" stroke-opacity=".85"/><path opacity=".25" d="m1935.42 1221.29 17.12 29.87-17.31 29.75-34.42-.11-17.12-29.86 17.31-29.76z" stroke="#9b32ee"/><g opacity=".25"><path d="m1901.95 1221.05-17.6 30.25-35-.11-17.4-30.37 17.6-30.25 35 .11z" fill="#9b32ee" fill-opacity=".45"/><path d="m1884.26 1191.18 17.11 29.87-17.31 29.75-34.42-.11-17.12-29.87 17.31-29.75z" stroke="#9b32ee" stroke-opacity=".75"/></g><path opacity=".25" d="m1832.42 1161.36 17.12 29.87-17.31 29.75-34.42-.11-17.12-29.87 17.31-29.75z" stroke="#9b32ee" stroke-opacity=".5"/><g opacity=".25"><path d="m1778 180 30.31 17.5v35L1778 250l-30.31-17.5v-35z" fill="#9b32ee" fill-opacity=".7"/><path d="m1748.19 197.789 29.81-17.212 29.81 17.212v34.422L1778 249.423l-29.81-17.212Z" stroke="#9b32ee" stroke-opacity=".75"/></g><path opacity=".25" d="m1688.19 196.789 29.81-17.212 29.81 17.212v34.422L1718 248.423l-29.81-17.212z" stroke="#9b32ee" stroke-opacity=".6"/><path opacity=".25" d="m1898.19 146.789 29.81-17.212 29.81 17.212v34.422L1928 198.423l-29.81-17.212z" fill="#9b32ee" fill-opacity=".9" stroke="#9b32ee"/><path opacity=".25" d="m1868.19 198.789 29.81-17.212 29.81 17.212v34.422L1898 250.423l-29.81-17.212z" stroke="#9b32ee" stroke-opacity=".95"/><path opacity=".25" d="m1838.19 146.789 29.81-17.212 29.81 17.212v34.422L1868 198.423l-29.81-17.212z" stroke="#9b32ee"/><g opacity=".25"><path d="m1838 181 30.31 17.5v35L1838 251l-30.31-17.5v-35z" fill="#9b32ee" fill-opacity=".85"/><path d="m1808.19 198.789 29.81-17.212 29.81 17.212v34.422L1838 250.423l-29.81-17.212Z" stroke="#9b32ee" stroke-opacity=".8"/></g><path opacity=".25" d="m1778.19 249.789 29.81-17.212 29.81 17.212v34.422L1808 301.423l-29.81-17.212z" stroke="#9b32ee" stroke-opacity=".6"/><path opacity=".25" d="m1778.19 146.789 29.81-17.212 29.81 17.212v34.422L1808 198.423l-29.81-17.212z" stroke="#9b32ee"/><path opacity=".25" d="m1718.19 145.789 29.81-17.212 29.81 17.212v34.422L1748 197.423l-29.81-17.212z" stroke="#9b32ee" stroke-opacity=".95"/><g opacity=".25"><path d="m1688 127 30.31 17.5v35L1688 197l-30.31-17.5v-35z" fill="#9b32ee" fill-opacity=".4"/><path d="m1658.19 144.789 29.81-17.212 29.81 17.212v34.422L1688 196.423l-29.81-17.212Z" stroke="#9b32ee" stroke-opacity=".8"/></g><path opacity=".25" d="m1629.19 196.789 29.81-17.212 29.81 17.212v34.422L1659 248.423l-29.81-17.212z" stroke="#9b32ee" stroke-opacity=".6"/><path opacity=".25" d="m1599.19 144.789 29.81-17.212 29.81 17.212v34.422L1629 196.423l-29.81-17.212z" stroke="#9b32ee" stroke-opacity=".75"/><g opacity=".25"><path d="m131 280 30.311 17.5v35L131 350l-30.311-17.5v-35z" fill="#9b32ee" fill-opacity=".8"/><path d="M101.189 297.789 131 280.577l29.811 17.212v34.422L131 349.423l-29.811-17.212Z" stroke="#9b32ee" stroke-opacity=".8"/></g><g opacity=".25"><path d="m101 332 30.311 17.5v35L101 402l-30.31-17.5v-35z" fill="#9b32ee" fill-opacity=".55"/><path d="M71.19 349.789 101 332.577l29.811 17.212v34.422L101 401.423l-29.81-17.212Z" stroke="#9b32ee" stroke-opacity=".75"/></g><path opacity=".25" d="M41.19 297.789 71 280.577l29.811 17.212v34.422L71 349.423l-29.81-17.212Z" stroke="#9b32ee" stroke-opacity=".85"/><path opacity=".25" d="M101.189 194.789 131 177.577l29.811 17.212v34.422L131 246.423l-29.811-17.212Z" stroke="#9b32ee" stroke-opacity=".95"/><path opacity=".25" d="M71.19 245.789 101 228.577l29.811 17.212v34.422L101 297.423l-29.81-17.212Z" stroke="#9b32ee" stroke-opacity=".95"/><path opacity=".25" d="M41.19 194.789 71 177.577l29.811 17.212v34.422L71 246.423 41.19 229.21Z" stroke="#9b32ee"/><g opacity=".25"><path opacity=".25" d="m1717.543 161.98 29.81-17.211 29.81 17.211v34.423l-29.81 17.211-29.81-17.211z" stroke="#9b32ee" stroke-opacity=".95"/><path d="m220 228 30.311 17.5v35L220 298l-30.311-17.5v-35z" fill="#9b32ee" fill-opacity=".5"/><path d="M190.189 245.789 220 228.577l29.811 17.212v34.422L220 297.423l-29.811-17.212Z" stroke="#9b32ee" stroke-opacity=".8"/></g><g opacity=".25"><path d="m191 280 30.311 17.5v35L191 350l-30.311-17.5v-35z" fill="#9b32ee" fill-opacity=".5"/><path d="M161.189 297.789 191 280.577l29.811 17.212v34.422L191 349.423l-29.811-17.212Z" stroke="#9b32ee" stroke-opacity=".8"/></g><path opacity=".25" d="M131.189 245.789 161 228.577l29.811 17.212v34.422L161 297.423l-29.811-17.212Z" stroke="#9b32ee" stroke-opacity=".85"/><path opacity=".25" d="M191.189 349.789 221 332.577l29.811 17.212v34.422L221 401.423l-29.811-17.212Z" stroke="#9b32ee" stroke-opacity=".25"/><path opacity=".25" d="M161.189 400.789 191 383.577l29.811 17.212v34.422L191 452.423l-29.811-17.212Z" stroke="#9b32ee" stroke-opacity=".5"/><path opacity=".25" d="M131.189 349.789 161 332.577l29.811 17.212v34.422L161 401.423l-29.811-17.212Z" stroke="#9b32ee" stroke-opacity=".7"/><g opacity=".25"><path d="m310 280 30.311 17.5v35L310 350l-30.311-17.5v-35z" fill="#9b32ee" fill-opacity=".25"/><path d="M280.189 297.789 310 280.577l29.811 17.212v34.422L310 349.423l-29.811-17.212Z" stroke="#9b32ee" stroke-opacity=".25"/></g><path opacity=".25" d="M310.189 245.789 340 228.577l29.811 17.212v34.422L340 297.423l-29.811-17.212Z" stroke="#9b32ee" stroke-opacity=".25"/><path opacity=".25" d="M102.189 504.789 132 487.577l29.811 17.212v34.422L132 556.423l-29.811-17.212Z" stroke="#9b32ee" stroke-opacity=".5"/><g opacity=".25"><path d="m371 176 30.311 17.5v35L371 246l-30.311-17.5v-35z" fill="#9b32ee" fill-opacity=".25"/><path d="M341.189 193.789 371 176.577l29.811 17.212v34.422L371 245.423l-29.811-17.212Z" stroke="#9b32ee" stroke-opacity=".25"/></g><path opacity=".25" d="M250.189 349.789 280 332.577l29.811 17.212v34.422L280 401.423l-29.811-17.212Z" stroke="#9b32ee" stroke-opacity=".5"/><path opacity=".25" d="M220.189 297.789 250 280.577l29.811 17.212v34.422L250 349.423l-29.811-17.212Z" stroke="#9b32ee" stroke-opacity=".7"/><g opacity=".25"><path d="m280 228 30.311 17.5v35L280 298l-30.311-17.5v-35z" fill="#9b32ee" fill-opacity=".5"/><path d="M250.189 245.789 280 228.577l29.811 17.212v34.422L280 297.423l-29.811-17.212Z" stroke="#9b32ee" stroke-opacity=".75"/></g><path opacity=".25" d="M340.189 297.789 370 280.577l29.811 17.212v34.422L370 349.423l-29.811-17.212Z" stroke="#9b32ee" stroke-opacity=".5"/><g opacity=".25"><path d="m280 125 30.311 17.5v35L280 195l-30.311-17.5v-35z" fill="#9b32ee" fill-opacity=".5"/><path d="M250.189 142.789 280 125.577l29.811 17.212v34.422L280 194.423l-29.811-17.212Z" stroke="#9b32ee" stroke-opacity=".8"/></g><g opacity=".25"><path d="m191.412 73.303 30.31 17.5v35l-30.31 17.5-30.311-17.5v-35z" fill="#9b32ee" fill-opacity=".5"/><path d="m161.6 91.092 29.812-17.211 29.81 17.211v34.423l-29.81 17.211-29.811-17.211Z" stroke="#9b32ee" stroke-opacity=".8"/></g><path opacity=".25" d="M281.189 193.789 311 176.577l29.811 17.212v34.422L311 245.423l-29.811-17.212Z" stroke="#9b32ee" stroke-opacity=".7"/><path opacity=".25" d="M221.189 194.789 251 177.577l29.811 17.212v34.422L251 246.423l-29.811-17.212Z" stroke="#9b32ee" stroke-opacity=".75"/><path opacity=".25" d="M191.189 142.789 221 125.577l29.811 17.212v34.422L221 194.423l-29.811-17.212Z" stroke="#9b32ee" stroke-opacity=".85"/><g opacity=".25"><path d="m191 176 30.311 17.5v35L191 246l-30.311-17.5v-35z" fill="#9b32ee" fill-opacity=".5"/><path d="M161.189 193.789 191 176.577l29.811 17.212v34.422L191 245.423l-29.811-17.212Z" stroke="#9b32ee" stroke-opacity=".85"/></g><path opacity=".25" d="M131.189 142.789 161 125.577l29.811 17.212v34.422L161 194.423l-29.811-17.212Z" stroke="#9b32ee" stroke-opacity=".95"/><path opacity=".25" d="M101.189 401.789 131 384.577l29.811 17.212v34.422L131 453.423l-29.811-17.212Z" stroke="#9b32ee" stroke-opacity=".25"/><g opacity=".25"><path d="m101 436 30.311 17.5v35L101 506l-30.31-17.5v-35z" fill="#9b32ee" fill-opacity=".25"/><path d="M71.19 453.789 101 436.577l29.811 17.212v34.422L101 505.423l-29.81-17.212Z" stroke="#9b32ee" stroke-opacity=".25"/></g><path opacity=".25" d="M41.19 401.789 71 384.577l29.811 17.212v34.422L71 453.423l-29.81-17.212Z" stroke="#9b32ee" stroke-opacity=".7"/><g opacity=".25"><path d="m41 332 30.31 17.5v35L41 402l-30.31-17.5v-35z" fill="#9b32ee" fill-opacity=".75"/><path d="M11.19 349.789 41 332.577l29.81 17.212v34.422L41 401.423l-29.81-17.212Z" stroke="#9b32ee" stroke-opacity=".8"/></g><path opacity=".25" d="M-17.81 401.789 12 384.577l29.81 17.212v34.422L12 453.423l-29.81-17.212Z" stroke="#9b32ee" stroke-opacity=".7"/><path opacity=".25" d="M-48.81 350.789-19 333.577l29.81 17.212v34.422L-19 402.423l-29.81-17.212Z" stroke="#9b32ee"/><path opacity=".25" d="M71.19 142.789 101 125.577l29.811 17.212v34.422L101 194.423 71.19 177.21Z" fill="#9b32ee" fill-opacity=".85" stroke="#9b32ee"/><path opacity=".25" d="M11.19 142.789 41 125.577l29.81 17.212v34.422L41 194.423 11.19 177.21ZM-18.81 194.789 11 177.577l29.81 17.212v34.422L11 246.423l-29.81-17.212ZM-48.81 142.789-19 125.577l29.81 17.212v34.422L-19 194.423l-29.81-17.212Z" stroke="#9b32ee"/><g opacity=".25"><path d="m41 229 30.31 17.5v35L41 299l-30.31-17.5v-35z" fill="#9b32ee" fill-opacity=".85"/><path d="M11.19 246.789 41 229.577l29.81 17.212v34.422L41 298.423l-29.81-17.212Z" stroke="#9b32ee" stroke-opacity=".95"/></g><path opacity=".25" d="M-18.81 298.789 11 281.577l29.81 17.212v34.422L11 350.423l-29.81-17.212Z" stroke="#9b32ee" stroke-opacity=".95"/><path opacity=".25" d="M-48.81 246.789-19 229.577l29.81 17.212v34.422L-19 298.423l-29.81-17.212Z" stroke="#9b32ee"/><g opacity=".25"><path d="m371.254 1263.11-17.401-30.37 17.599-30.26 35 .12 17.401 30.37-17.599 30.25z" fill="#9b32ee" fill-opacity=".7"/><path d="m405.967 1262.72-34.423-.11-17.114-29.87 17.309-29.75 34.422.11 17.114 29.86z" stroke="#9b32ee" stroke-opacity=".85"/></g><path opacity=".25" d="m549.592 1263.46-34.423-.11-17.114-29.87 17.309-29.75 34.422.11 17.114 29.87z" fill="#9b32ee" fill-opacity=".9" stroke="#9b32ee"/><path opacity=".25" d="m76.866 995.803-17.114-29.867 17.308-29.755 34.423.112 17.114 29.867-17.308 29.755z" stroke="#9b32ee" stroke-opacity=".8"/><g opacity=".25"><path d="m59.114 906 17.599-30.253 35 .114 17.401 30.367-17.599 30.254-35-.114z" fill="#9b32ee" fill-opacity=".8"/><path d="m76.805 935.869-17.114-29.867L77 876.247l34.422.113 17.114 29.867-17.308 29.754z" stroke="#9b32ee" stroke-opacity=".8"/></g><path opacity=".25" d="M24.805 965.869 7.691 936.002 25 906.247l34.422.113 17.114 29.867-17.308 29.754Z" stroke="#9b32ee" stroke-opacity=".8"/><g opacity=".25"><path d="m-44.886 966 17.599-30.253 35 .114 17.4 30.367-17.598 30.254-35-.114z" fill="#9b32ee" fill-opacity=".9"/><path d="m-27.195 837.869-17.114-29.867L-27 778.247l34.422.113 17.114 29.867-17.308 29.754z" stroke="#9b32ee" stroke-opacity=".9" style="display:inline" transform="translate(0 158)"/></g><path opacity=".25" d="m-27.195 935.869-17.114-29.867L-27 876.247l34.422.113 17.114 29.867-17.308 29.754z" stroke="#9b32ee"/><path opacity=".25" d="M24.805 905.869 7.691 876.002 25 846.247l34.422.113 17.114 29.867-17.308 29.754Z" stroke="#9b32ee" stroke-opacity=".9"/><path opacity=".25" d="m76.805 875.869-17.114-29.867L77 816.247l34.422.113 17.114 29.867-17.308 29.754z" stroke="#9b32ee" stroke-opacity=".85"/><g opacity=".25"><path d="m-44.886 846 17.599-30.253 35 .114 17.4 30.367-17.598 30.254-35-.114z" fill="#9b32ee" fill-opacity=".9"/><path d="m-27.195 875.869-17.114-29.867L-27 816.247l34.422.113 17.114 29.867-17.308 29.754z" stroke="#9b32ee" stroke-opacity=".9"/></g><path opacity=".25" d="m128.805 905.869-17.114-29.867L129 846.247l34.422.113 17.114 29.867-17.308 29.754zM76.805 875.869l-17.114-29.867L77 816.247l34.422.113 17.114 29.867-17.308 29.754z" stroke="#9b32ee" stroke-opacity=".85"/><path opacity=".25" d="m128.805 905.869-17.114-29.867L129 846.247l34.422.113 17.114 29.867-17.308 29.754z" stroke="#9b32ee" stroke-opacity=".85"/><g opacity=".25"><path d="m111.281 936.227 17.5-30.311h35l17.5 30.311-17.5 30.31h-35z" fill="#9b32ee" fill-opacity=".7"/><path d="m129.07 966.037-17.211-29.81 17.211-29.811h34.423l17.211 29.811-17.211 29.81z" stroke="#9b32ee" stroke-opacity=".85"/></g></g><g transform="translate(11.941)"><rect style="fill:#dedede;fill-opacity:1" width="1934.447" height="261.376" x="-11.941" y="1038.87" ry="0"/><path style="fill:#dedede;fill-opacity:1" d="M1763.771 945.681h155.737v150.108h-155.737z"/><path opacity=".25" d="m101.416 90.679 29.811-17.211 29.811 17.21v34.424l-29.81 17.21-29.812-17.21z" stroke="#9b32ee" stroke-opacity=".7"/><g opacity=".25"><path d="m1932.59 1021.655 30.31 17.5v35l-30.31 17.5-30.31-17.5v-35z" fill="#9b32ee" fill-opacity=".4"/><path d="m1902.78 1039.444 29.81-17.211 29.81 17.21v34.423l-29.81 17.212-29.81-17.212Z" stroke="#9b32ee" stroke-opacity=".8"/></g><path opacity=".25" d="m1873.78 1091.444 29.81-17.211 29.81 17.21v34.424l-29.81 17.21-29.81-17.21z" stroke="#9b32ee" stroke-opacity=".6"/><path opacity=".25" d="m1843.78 1039.444 29.81-17.211 29.81 17.21v34.424l-29.81 17.21-29.81-17.21z" stroke="#9b32ee" stroke-opacity=".75"/><path opacity=".25" d="m1748.28 94.579 29.81-17.211 29.81 17.21v34.423l-29.81 17.212L1748.28 129z" stroke="#9b32ee" stroke-opacity=".95"/><g opacity=".25"><path d="m1718.419 76.321 30.31 17.5v35l-30.31 17.5-30.31-17.5v-35z" fill="#9b32ee" fill-opacity=".4"/><path d="m1688.609 94.11 29.81-17.212 29.81 17.212v34.422l-29.81 17.212-29.81-17.212Z" stroke="#9b32ee" stroke-opacity=".8"/></g></g><defs><clipPath id="a"><path fill="#fff" d="M0 0h1920v1080H0z"/></clipPath></defs></svg>